<svg width="500" height="400" viewBox="0 0 500 400" fill="none" xmlns="http://www.w3.org/2000/svg">
<path d="M320 50H60C54.4772 50 50 54.4772 50 60V240C50 245.523 54.4772 250 60 250H320C325.523 250 330 245.523 330 240V60C330 54.4772 325.523 50 320 50Z" fill="#E0E0E0"/>
<path d="M315 60H65C62.2386 60 60 62.2386 60 65V235C60 237.761 62.2386 240 65 240H315C317.761 240 320 237.761 320 235V65C320 62.2386 317.761 60 315 60Z" fill="white"/>
<path d="M315 60H65C62.2386 60 60 62.2386 60 65V235C60 237.761 62.2386 240 65 240H315C317.761 240 320 237.761 320 235V65C320 62.2386 317.761 60 315 60Z" stroke="#BDBDBD"/>
<path d="M196 83H84C81.7909 83 80 84.7909 80 87V99C80 101.209 81.7909 103 84 103H196C198.209 103 200 101.209 200 99V87C200 84.7909 198.209 83 196 83Z" fill="#0F9D58" fill-opacity="0.7"/>
<path d="M298 110H82C80.8954 110 80 110.895 80 112V118C80 119.105 80.8954 120 82 120H298C299.105 120 300 119.105 300 118V112C300 110.895 299.105 110 298 110Z" fill="#E0E0E0"/>
<path d="M258 130H82C80.8954 130 80 130.895 80 132V138C80 139.105 80.8954 140 82 140H258C259.105 140 260 139.105 260 138V132C260 130.895 259.105 130 258 130Z" fill="#E0E0E0"/>
<path d="M278 150H82C80.8954 150 80 150.895 80 152V158C80 159.105 80.8954 160 82 160H278C279.105 160 280 159.105 280 158V152C280 150.895 279.105 150 278 150Z" fill="#E0E0E0"/>
<path d="M136 180H84C81.7909 180 80 181.791 80 184V206C80 208.209 81.7909 210 84 210H136C138.209 210 140 208.209 140 206V184C140 181.791 138.209 180 136 180Z" fill="#4285F4"/>
<path d="M206 180H154C151.791 180 150 181.791 150 184V206C150 208.209 151.791 210 154 210H206C208.209 210 210 208.209 210 206V184C210 181.791 208.209 180 206 180Z" fill="white" stroke="#4285F4" stroke-width="2"/>
<path d="M460 100H380C374.477 100 370 104.477 370 110V270C370 275.523 374.477 280 380 280H460C465.523 280 470 275.523 470 270V110C470 104.477 465.523 100 460 100Z" fill="#212121"/>
<path d="M458 120H382C380.895 120 380 120.895 380 122V258C380 259.105 380.895 260 382 260H458C459.105 260 460 259.105 460 258V122C460 120.895 459.105 120 458 120Z" fill="white"/>
<path d="M420 113C421.657 113 423 111.657 423 110C423 108.343 421.657 107 420 107C418.343 107 417 108.343 417 110C417 111.657 418.343 113 420 113Z" fill="#424242"/>
<path d="M428.5 270H411.5C410.672 270 410 270.672 410 271.5C410 272.328 410.672 273 411.5 273H428.5C429.328 273 430 272.328 430 271.5C430 270.672 429.328 270 428.5 270Z" fill="#424242"/>
<path d="M428 161H392C390.895 161 390 161.895 390 163V169C390 170.105 390.895 171 392 171H428C429.105 171 430 170.105 430 169V163C430 161.895 429.105 161 428 161Z" fill="#4285F4" fill-opacity="0.7"/>
<path d="M449 181H391C390.448 181 390 181.448 390 182V186C390 186.552 390.448 187 391 187H449C449.552 187 450 186.552 450 186V182C450 181.448 449.552 181 449 181Z" fill="#E0E0E0"/>
<path d="M439 191H391C390.448 191 390 191.448 390 192V196C390 196.552 390.448 197 391 197H439C439.552 197 440 196.552 440 196V192C440 191.448 439.552 191 439 191Z" fill="#E0E0E0"/>
<path d="M444 201H391C390.448 201 390 201.448 390 202V206C390 206.552 390.448 207 391 207H444C444.552 207 445 206.552 445 206V202C445 201.448 444.552 201 444 201Z" fill="#E0E0E0"/>
<path d="M411 216H394C391.791 216 390 217.791 390 220V232C390 234.209 391.791 236 394 236H411C413.209 236 415 234.209 415 232V220C415 217.791 413.209 216 411 216Z" fill="#0F9D58"/>
<path d="M150 370C177.614 370 200 347.614 200 320C200 292.386 177.614 270 150 270C122.386 270 100 292.386 100 320C100 347.614 122.386 370 150 370Z" fill="#F8F9FA"/>
<path d="M350 110C366.569 110 380 96.5685 380 80C380 63.4315 366.569 50 350 50C333.431 50 320 63.4315 320 80C320 96.5685 333.431 110 350 110Z" fill="#F8F9FA"/>
<path d="M420 50C420 33.4315 433.431 20 450 20C466.569 20 480 33.4315 480 50C480 66.5685 466.569 80 450 80C433.431 80 420 66.5685 420 50Z" fill="#F8F9FA"/>
<path d="M120 250H100C94.4772 250 90 254.477 90 260V280C90 285.523 94.4772 290 100 290H120C125.523 290 130 285.523 130 280V260C130 254.477 125.523 250 120 250Z" fill="#4285F4"/>
<path d="M110 280C115.523 280 120 275.523 120 270C120 264.477 115.523 260 110 260C104.477 260 100 264.477 100 270C100 275.523 104.477 280 110 280Z" stroke="white" stroke-width="2"/>
<path d="M110 260V270L116 276" stroke="white" stroke-width="2" stroke-linecap="round" stroke-linejoin="round"/>
<path d="M170 250H150C144.477 250 140 254.477 140 260V280C140 285.523 144.477 290 150 290H170C175.523 290 180 285.523 180 280V260C180 254.477 175.523 250 170 250Z" fill="#DB4437"/>
<path d="M168 260H152C150.895 260 150 260.895 150 262V278C150 279.105 150.895 280 152 280H168C169.105 280 170 279.105 170 278V262C170 260.895 169.105 260 168 260Z" stroke="white" stroke-width="2"/>
<path d="M150 270H170" stroke="white" stroke-width="2"/>
<path d="M220 250H200C194.477 250 190 254.477 190 260V280C190 285.523 194.477 290 200 290H220C225.523 290 230 285.523 230 280V260C230 254.477 225.523 250 220 250Z" fill="#0F9D58"/>
<path d="M200 260H220" stroke="white" stroke-width="2" stroke-linecap="round"/>
<path d="M200 270H215" stroke="white" stroke-width="2" stroke-linecap="round"/>
<path d="M200 280H210" stroke="white" stroke-width="2" stroke-linecap="round"/>
<g clip-path="url(#clip0_509_27)">
<path d="M412.4 128H391.6C390.716 128 390 129.433 390 131.2V148.8C390 150.567 390.716 152 391.6 152H412.4C413.284 152 414 150.567 414 148.8V131.2C414 129.433 413.284 128 412.4 128Z" fill="#0D46A1"/>
<path d="M406 148H410V144H406M406 142H410V138H406M400 136H404V132H400M406 136H410V132H406M400 142H404V138H400M394 142H398V138H394M394 148H398V144H394M400 148H404V144H400M394 136H398V132H394V136Z" fill="white"/>
</g>
<defs>
<clipPath id="clip0_509_27">
<rect width="24" height="24" fill="white" transform="translate(390 129)"/>
</clipPath>
</defs>
</svg>
